<?xml version="1.0" encoding="UTF-8"?>
<svg style="width: 100%; height: 100%;" viewBox="0 0 570 584" version="1.1" xmlns="http://www.w3.org/2000/svg" xmlns:xlink="http://www.w3.org/1999/xlink">
    <title>主图</title>
    <defs>
        <linearGradient x1="-18.3051989%" y1="28.9807563%" x2="135.41791%" y2="76.2848682%" id="linearGradient-1">
            <stop stop-color="#E1ECFF" offset="0%"></stop>
            <stop stop-color="#FFFFFF" offset="100%"></stop>
        </linearGradient>
        <linearGradient x1="49.9969651%" y1="27.4631431%" x2="49.9969651%" y2="135.713982%" id="linearGradient-2">
            <stop stop-color="#BBD0FE" offset="0%"></stop>
            <stop stop-color="#E0EBFF" offset="100%"></stop>
        </linearGradient>
        <linearGradient x1="-0.0112842494%" y1="50.1430773%" x2="100.057439%" y2="50.1430773%" id="linearGradient-3">
            <stop stop-color="#3158D3" offset="0%"></stop>
            <stop stop-color="#306EF3" offset="100%"></stop>
        </linearGradient>
        <linearGradient x1="41.9745776%" y1="69.6347049%" x2="56.7816606%" y2="33.4082515%" id="linearGradient-4">
            <stop stop-color="#3158D3" offset="0%"></stop>
            <stop stop-color="#306EF3" offset="100%"></stop>
        </linearGradient>
        <linearGradient x1="82.4075116%" y1="35.6533344%" x2="41.0217068%" y2="55.7226208%" id="linearGradient-5">
            <stop stop-color="#3158D3" offset="0%"></stop>
            <stop stop-color="#308AF3" offset="100%"></stop>
        </linearGradient>
        <linearGradient x1="53.802513%" y1="27.1073053%" x2="-12.3407849%" y2="274.617499%" id="linearGradient-6">
            <stop stop-color="#253C6F" offset="0%"></stop>
            <stop stop-color="#3068E8" offset="100%"></stop>
        </linearGradient>
        <linearGradient x1="9954.05558%" y1="33.2936496%" x2="10070.0668%" y2="266.756073%" id="linearGradient-7">
            <stop stop-color="#253C6F" offset="0%"></stop>
            <stop stop-color="#3068E8" offset="100%"></stop>
        </linearGradient>
        <linearGradient x1="1458.66153%" y1="42.3347825%" x2="1478.19856%" y2="122.936676%" id="linearGradient-8">
            <stop stop-color="#253C6F" offset="0%"></stop>
            <stop stop-color="#3068E8" offset="100%"></stop>
        </linearGradient>
        <linearGradient x1="67.1263606%" y1="92.7913567%" x2="35.5003548%" y2="17.215669%" id="linearGradient-9">
            <stop stop-color="#3158D3" offset="0%"></stop>
            <stop stop-color="#308AF3" offset="100%"></stop>
        </linearGradient>
        <linearGradient x1="114.404663%" y1="20.0481913%" x2="-174.937552%" y2="154.621446%" id="linearGradient-10">
            <stop stop-color="#253C6F" offset="0%"></stop>
            <stop stop-color="#3068E8" offset="100%"></stop>
        </linearGradient>
        <linearGradient x1="7171.60003%" y1="51.3454616%" x2="7238.88102%" y2="-23.658172%" id="linearGradient-11">
            <stop stop-color="#253C6F" offset="0%"></stop>
            <stop stop-color="#3068E8" offset="100%"></stop>
        </linearGradient>
        <linearGradient x1="-0.00399932664%" y1="49.9923588%" x2="100.015488%" y2="49.9923588%" id="linearGradient-12">
            <stop stop-color="#3158D3" offset="0%"></stop>
            <stop stop-color="#308AF3" offset="100%"></stop>
        </linearGradient>
        <linearGradient x1="87.264649%" y1="70.984614%" x2="-25.586857%" y2="22.8561041%" id="linearGradient-13">
            <stop stop-color="#253C6F" offset="0%"></stop>
            <stop stop-color="#3068E8" offset="100%"></stop>
        </linearGradient>
        <linearGradient x1="-6.4134129%" y1="34.3998306%" x2="109.186099%" y2="66.3662216%" id="linearGradient-14">
            <stop stop-color="#E1ECFF" offset="0%"></stop>
            <stop stop-color="#FFFFFF" offset="100%"></stop>
        </linearGradient>
        <linearGradient x1="50.0220225%" y1="5.53638971%" x2="49.9888292%" y2="70.6513155%" id="linearGradient-15">
            <stop stop-color="#3158D3" offset="0%"></stop>
            <stop stop-color="#306EF3" offset="100%"></stop>
        </linearGradient>
        <linearGradient x1="50.0220188%" y1="5.53592951%" x2="49.988831%" y2="70.6454428%" id="linearGradient-16">
            <stop stop-color="#3158D3" offset="0%"></stop>
            <stop stop-color="#306EF3" offset="100%"></stop>
        </linearGradient>
        <linearGradient x1="50.0217033%" y1="5.53223326%" x2="49.9888292%" y2="70.6513155%" id="linearGradient-17">
            <stop stop-color="#3158D3" offset="0%"></stop>
            <stop stop-color="#306EF3" offset="100%"></stop>
        </linearGradient>
        <linearGradient x1="50.0217033%" y1="5.53223326%" x2="49.98851%" y2="70.6513155%" id="linearGradient-18">
            <stop stop-color="#3158D3" offset="0%"></stop>
            <stop stop-color="#306EF3" offset="100%"></stop>
        </linearGradient>
        <linearGradient x1="81.0648009%" y1="53.8462628%" x2="-24.4251763%" y2="28.1888002%" id="linearGradient-19">
            <stop stop-color="#253C6F" offset="0%"></stop>
            <stop stop-color="#3068E8" offset="100%"></stop>
        </linearGradient>
        <linearGradient x1="0%" y1="50%" x2="100%" y2="50%" id="linearGradient-20">
            <stop stop-color="#3158D3" offset="0%"></stop>
            <stop stop-color="#306EF3" offset="100%"></stop>
        </linearGradient>
        <linearGradient x1="40.3380634%" y1="49.3627727%" x2="111.096619%" y2="54.0248292%" id="linearGradient-21">
            <stop stop-color="#CBDDFE" offset="0%"></stop>
            <stop stop-color="#EFF5FF" offset="100%"></stop>
        </linearGradient>
        <linearGradient x1="-0.00841782753%" y1="50.0317864%" x2="100.033253%" y2="50.0317864%" id="linearGradient-22">
            <stop stop-color="#BBD0FE" offset="0%"></stop>
            <stop stop-color="#E0EBFF" offset="30%"></stop>
            <stop stop-color="#BBD0FE" offset="71%"></stop>
        </linearGradient>
        <linearGradient x1="35.8624371%" y1="49.9897392%" x2="94.294986%" y2="49.9897392%" id="linearGradient-23">
            <stop stop-color="#BBD0FE" offset="0%"></stop>
            <stop stop-color="#E0EBFF" offset="57%"></stop>
            <stop stop-color="#BBD0FE" offset="100%"></stop>
        </linearGradient>
        <linearGradient x1="-35.3087815%" y1="50.0375046%" x2="95.3306906%" y2="50.0375046%" id="linearGradient-24">
            <stop stop-color="#BBD0FE" offset="0%"></stop>
            <stop stop-color="#E0EBFF" offset="57%"></stop>
            <stop stop-color="#BBD0FE" offset="100%"></stop>
        </linearGradient>
        <linearGradient x1="44.878472%" y1="52.2666753%" x2="93.3104889%" y2="29.8867553%" id="linearGradient-25">
            <stop stop-color="#253C6F" offset="0%"></stop>
            <stop stop-color="#3068E8" offset="100%"></stop>
        </linearGradient>
        <linearGradient x1="146.521121%" y1="28.9427681%" x2="-25.9353159%" y2="66.5680566%" id="linearGradient-26">
            <stop stop-color="#3158D3" offset="0%"></stop>
            <stop stop-color="#306EF3" offset="100%"></stop>
        </linearGradient>
        <linearGradient x1="0%" y1="50%" x2="100%" y2="50%" id="linearGradient-27">
            <stop stop-color="#E1ECFF" offset="0%"></stop>
            <stop stop-color="#FFFFFF" offset="100%"></stop>
        </linearGradient>
        <linearGradient x1="9.25470619e-05%" y1="49.9959132%" x2="100%" y2="49.9959132%" id="linearGradient-28">
            <stop stop-color="#BBD0FE" offset="0%"></stop>
            <stop stop-color="#E0EBFF" offset="57%"></stop>
        </linearGradient>
        <linearGradient x1="34.5843439%" y1="104.043575%" x2="50.2766585%" y2="48.9453534%" id="linearGradient-29">
            <stop stop-color="#CBDDFE" offset="0%"></stop>
            <stop stop-color="#EFF5FF" offset="100%"></stop>
        </linearGradient>
        <linearGradient x1="48.7406345%" y1="50.4783009%" x2="43.3558014%" y2="-10.2089392%" id="linearGradient-30">
            <stop stop-color="#3158D3" offset="0%"></stop>
            <stop stop-color="#306EF3" offset="100%"></stop>
        </linearGradient>
        <linearGradient x1="49.962829%" y1="51.2763425%" x2="48.9657145%" y2="69.9744719%" id="linearGradient-31">
            <stop stop-color="#253C6F" offset="0%"></stop>
            <stop stop-color="#3068E8" offset="100%"></stop>
        </linearGradient>
        <linearGradient x1="15.1051594%" y1="92.58985%" x2="43.5028591%" y2="58.5172065%" id="linearGradient-32">
            <stop stop-color="#3158D3" offset="0%"></stop>
            <stop stop-color="#306EF3" offset="100%"></stop>
        </linearGradient>
        <linearGradient x1="71.6538547%" y1="92.8134229%" x2="16.5221801%" y2="-27.3978936%" id="linearGradient-33">
            <stop stop-color="#3158D3" offset="0%"></stop>
            <stop stop-color="#306EF3" offset="100%"></stop>
        </linearGradient>
        <linearGradient x1="-9.59997954e-14%" y1="49.9978401%" x2="99.9999648%" y2="49.9978401%" id="linearGradient-34">
            <stop stop-color="#3158D3" offset="0%"></stop>
            <stop stop-color="#306EF3" offset="100%"></stop>
        </linearGradient>
        <linearGradient x1="81.4066952%" y1="-103.052484%" x2="62.2131528%" y2="-9.51842183%" id="linearGradient-35">
            <stop stop-color="#BBD0FE" offset="0%"></stop>
            <stop stop-color="#E0EBFF" offset="39%"></stop>
        </linearGradient>
        <linearGradient x1="0%" y1="50%" x2="100%" y2="50%" id="linearGradient-36">
            <stop stop-color="#28C4FF" offset="0%"></stop>
            <stop stop-color="#34EDCB" offset="100%"></stop>
        </linearGradient>
        <linearGradient x1="-5.90335641e-14%" y1="50.0026749%" x2="100%" y2="50.0026749%" id="linearGradient-37">
            <stop stop-color="#3158D3" offset="0%"></stop>
            <stop stop-color="#306EF3" offset="100%"></stop>
        </linearGradient>
        <linearGradient x1="0.00912420181%" y1="50.0074623%" x2="99.9998828%" y2="50.0074623%" id="linearGradient-38">
            <stop stop-color="#3158D3" offset="0%"></stop>
            <stop stop-color="#306EF3" offset="100%"></stop>
        </linearGradient>
        <linearGradient x1="114.900377%" y1="94.0206186%" x2="-28.3387305%" y2="-19.3814433%" id="linearGradient-39">
            <stop stop-color="#253C6F" offset="0%"></stop>
            <stop stop-color="#3068E8" offset="100%"></stop>
        </linearGradient>
        <linearGradient x1="0.000127384108%" y1="50.0085397%" x2="100.008829%" y2="50.0085397%" id="linearGradient-40">
            <stop stop-color="#3158D3" offset="0%"></stop>
            <stop stop-color="#306EF3" offset="100%"></stop>
        </linearGradient>
        <linearGradient x1="-0.0128667407%" y1="49.995924%" x2="100%" y2="49.995924%" id="linearGradient-41">
            <stop stop-color="#3158D3" offset="0%"></stop>
            <stop stop-color="#308AF3" offset="100%"></stop>
        </linearGradient>
        <linearGradient x1="-102.184181%" y1="57.2215485%" x2="134.267971%" y2="45.9308926%" id="linearGradient-42">
            <stop stop-color="#E1ECFF" offset="0%"></stop>
            <stop stop-color="#FFFFFF" offset="100%"></stop>
        </linearGradient>
        <linearGradient x1="48.4502108%" y1="26.562157%" x2="56.9406516%" y2="142.794631%" id="linearGradient-43">
            <stop stop-color="#253C6F" offset="0%"></stop>
            <stop stop-color="#3068E8" offset="100%"></stop>
        </linearGradient>
        <linearGradient x1="52.8151159%" y1="16.4843504%" x2="43.3545825%" y2="151.053616%" id="linearGradient-44">
            <stop stop-color="#253C6F" offset="0%"></stop>
            <stop stop-color="#3068E8" offset="100%"></stop>
        </linearGradient>
        <linearGradient x1="45.9642457%" y1="15.0686984%" x2="53.0300775%" y2="84.9343868%" id="linearGradient-45">
            <stop stop-color="#253C6F" offset="0%"></stop>
            <stop stop-color="#3068E8" offset="100%"></stop>
        </linearGradient>
        <linearGradient x1="0.018115942%" y1="49.9761256%" x2="100%" y2="49.9761256%" id="linearGradient-46">
            <stop stop-color="#3158D3" offset="0%"></stop>
            <stop stop-color="#308AF3" offset="100%"></stop>
        </linearGradient>
        <linearGradient x1="67.6427954%" y1="25.598224%" x2="4.12220152%" y2="91.4203096%" id="linearGradient-47">
            <stop stop-color="#253C6F" offset="0%"></stop>
            <stop stop-color="#3068E8" offset="100%"></stop>
        </linearGradient>
        <linearGradient x1="49.62877%" y1="50.1063858%" x2="69.4188946%" y2="33.877147%" id="linearGradient-48">
            <stop stop-color="#3158D3" offset="0%"></stop>
            <stop stop-color="#306EF3" offset="100%"></stop>
        </linearGradient>
        <linearGradient x1="82.1915847%" y1="47.3744244%" x2="31.4779963%" y2="51.5071829%" id="linearGradient-49">
            <stop stop-color="#BBD0FE" offset="0%"></stop>
            <stop stop-color="#E0EBFF" offset="39%"></stop>
        </linearGradient>
        <linearGradient x1="0.000127384108%" y1="50.0085397%" x2="100.008829%" y2="50.0085397%" id="linearGradient-50">
            <stop stop-color="#3158D3" offset="0%"></stop>
            <stop stop-color="#306EF3" offset="100%"></stop>
        </linearGradient>
        <linearGradient x1="-8.10089021%" y1="23.6029919%" x2="96.9366533%" y2="73.5174531%" id="linearGradient-51">
            <stop stop-color="#3158D3" offset="0%"></stop>
            <stop stop-color="#306EF3" offset="100%"></stop>
        </linearGradient>
        <linearGradient x1="-0.052025175%" y1="49.9959765%" x2="99.9582159%" y2="49.9959765%" id="linearGradient-52">
            <stop stop-color="#253C6F" offset="0%"></stop>
            <stop stop-color="#3068E8" offset="100%"></stop>
        </linearGradient>
        <linearGradient x1="0.000576529832%" y1="49.9986855%" x2="99.9636809%" y2="49.9986855%" id="linearGradient-53">
            <stop stop-color="#3158D3" offset="0%"></stop>
            <stop stop-color="#308AF3" offset="100%"></stop>
        </linearGradient>
        <linearGradient x1="-0.0515195901%" y1="49.987239%" x2="99.9477756%" y2="49.987239%" id="linearGradient-54">
            <stop stop-color="#3158D3" offset="0%"></stop>
            <stop stop-color="#308AF3" offset="100%"></stop>
        </linearGradient>
        <linearGradient x1="0.0363051263%" y1="49.9978451%" x2="99.9636946%" y2="49.9978451%" id="linearGradient-55">
            <stop stop-color="#28C4FF" offset="0%"></stop>
            <stop stop-color="#34EDCB" offset="100%"></stop>
        </linearGradient>
        <linearGradient x1="0.000256719423%" y1="50.0001833%" x2="100%" y2="50.0001833%" id="linearGradient-56">
            <stop stop-color="#253C6F" offset="0%"></stop>
            <stop stop-color="#3068E8" offset="100%"></stop>
        </linearGradient>
        <linearGradient x1="0.0751079498%" y1="49.9908426%" x2="100.07492%" y2="49.9908426%" id="linearGradient-57">
            <stop stop-color="#3158D3" offset="0%"></stop>
            <stop stop-color="#308AF3" offset="100%"></stop>
        </linearGradient>
    </defs>
    <g id="集合" stroke="none" stroke-width="1" fill="none" fill-rule="evenodd">
        <g id="登陆" transform="translate(-75.000000, -245.000000)">
            <rect fill="#F8F9FA" x="0" y="0" width="1440" height="1104"></rect>
            <rect id="矩形" fill="#FFFFFF" x="0" y="0" width="720" height="1104"></rect>
            <g id="编组" transform="translate(75.000000, 245.000000)">
                <g id="box_empty" transform="translate(383.000000, 248.000000)">
                    <path d="M143.458577,122.752666 C145.505363,123.93537 145.514541,125.858989 143.481523,127.041693 L90.1687177,158.109521 C88.1356995,159.296826 84.8314712,159.296826 82.7846854,158.109521 L29.1231007,127.041693 C27.0763149,125.858989 27.0625473,123.93537 29.0955655,122.752666 L82.4083705,91.6848381 C84.4413887,90.4975326 87.7502062,90.4975326 89.796992,91.6848381 L143.458577,122.752666 Z" id="Path" fill="url(#linearGradient-1)"></path>
                    <path d="M122.132537,35.632972 C122.129404,35.69025 122.121731,35.7471871 122.109591,35.8032445 C122.109591,35.8492641 122.109591,35.8952837 122.077466,35.9413033 C122.045342,35.9873229 122.049931,36.0517503 122.031574,36.1069738 L121.976504,36.2358287 C121.948969,36.2956542 121.926023,36.3508777 121.893898,36.4061012 C121.861774,36.4613247 121.848006,36.4889365 121.820471,36.5303541 C121.792936,36.5717718 121.742454,36.654607 121.696562,36.7190345 C121.65067,36.7834619 121.604778,36.8386854 121.549708,36.8985109 L121.517583,36.9399285 C121.444156,37.0181618 121.366139,37.0917932 121.288123,37.1654245 L121.118322,37.3034833 C121.069868,37.3458813 121.019323,37.3858151 120.966879,37.4231343 C120.907219,37.4691538 120.838381,37.5105715 120.774132,37.5519891 C120.709883,37.5934068 120.641045,37.6440283 120.567618,37.6854459 L65.1345995,69.9912013 C64.9693881,70.0832405 64.7995875,70.1706777 64.6206084,70.248911 L64.4691646,70.3179404 L64.0423685,70.479009 L63.8863355,70.5342325 L63.6063939,70.6124658 C63.5329666,70.6124658 63.4641285,70.6538834 63.3907012,70.6676893 C63.3172739,70.6814952 63.1933654,70.7137089 63.0924029,70.7321168 L62.8858886,70.7735344 C62.6839635,70.8103501 62.4774493,70.8379618 62.270935,70.8609716 L62.0781883,70.8609716 L61.7110519,70.8839814 L61.178704,70.8839814 L60.9262977,70.8839814 L60.6555345,70.8839814 L60.4031282,70.8609716 C60.3113441,70.8609716 60.21956,70.8609716 60.132365,70.8333599 L59.8891371,70.7965442 L59.6000172,70.7505246 L59.3751461,70.704505 L59.040134,70.6216697 L58.8519766,70.5710482 C58.6546407,70.5112227 58.4573049,70.4467953 58.2691474,70.3731639 L57.9983843,70.253513 L57.8561189,70.1936875 C57.7184427,70.1292601 57.5853558,70.0602307 57.456858,69.9865993 L1.66129254,37.6900479 C0.743451357,37.1470167 0.197335854,36.4521208 0.0826057064,35.748021 C0.0757310008,35.6453595 0.0757310008,35.5423512 0.0826057064,35.4396897 L0,108.357737 C0,109.172284 0.532347886,109.986831 1.60163286,110.603493 L57.3650739,142.909249 C57.4935716,142.98288 57.6266586,143.05191 57.7643348,143.116337 L57.902011,143.176162 L58.1498281,143.282007 L58.1773633,143.282007 C58.3655208,143.355639 58.5628566,143.420066 58.7601925,143.47529 L58.8060845,143.47529 L58.9483499,143.507504 C59.0584909,143.539717 59.1686318,143.567329 59.2833619,143.590339 L59.3751461,143.590339 L59.508233,143.613349 L59.797353,143.66397 L59.9120832,143.66397 C59.954886,143.661708 59.997778,143.661708 60.0405809,143.66397 L60.3113441,143.691582 L60.4398418,143.691582 L60.5637504,143.691582 L60.8345135,143.691582 L60.9767789,143.691582 L61.6192678,143.691582 C61.7431763,143.691582 61.8624957,143.691582 61.9864042,143.66397 L62.1332588,143.66397 L62.1791509,143.66397 C62.3856651,143.64096 62.5921794,143.613349 62.7941045,143.576533 L62.8262289,143.576533 L63.0006187,143.539717 L63.2989171,143.47529 L63.5146098,143.420066 C63.6063939,143.392455 63.7027672,143.369445 63.7945514,143.337231 L63.854211,143.337231 L63.9505844,143.300415 C64.0974389,143.249794 64.2351151,143.19457 64.3773805,143.134745 L64.5288243,143.070317 C64.7078033,142.992084 64.877604,142.904647 65.0428154,142.812608 L120.475834,110.506852 L120.540082,110.470037 L120.682348,110.373395 C120.746597,110.331978 120.815435,110.29056 120.875094,110.244541 L121.026538,110.12489 L121.196339,109.986831 L121.228463,109.959219 L121.425799,109.761335 L121.457924,109.719917 L121.563475,109.595664 C121.578688,109.578389 121.5925,109.559923 121.604778,109.540441 C121.649304,109.478149 121.690659,109.413639 121.728687,109.347159 C121.749707,109.323072 121.768163,109.296852 121.783757,109.268925 C121.785485,109.255174 121.785485,109.241259 121.783757,109.227508 C121.814373,109.17299 121.840467,109.116041 121.861774,109.057235 C121.880385,109.025991 121.897239,108.993727 121.912255,108.960594 L121.912255,108.923778 C121.930274,108.870906 121.945591,108.817147 121.958147,108.76271 C121.958147,108.725894 121.981093,108.689078 121.990272,108.652263 L121.990272,108.624651 C121.994432,108.56797 121.994432,108.511059 121.990272,108.454378 C121.990272,108.412961 121.990272,108.376145 121.990272,108.339329 C121.992533,108.324073 121.992533,108.308566 121.990272,108.29331 L122.063699,35.3752623 C122.146305,35.527127 122.137126,35.5777485 122.132537,35.632972 Z" id="Path" fill="url(#linearGradient-2)"></path>
                    <path d="M65.2539188,104.036497 C65.0801659,104.137041 64.9009029,104.22769 64.7169817,104.308013 L64.5563595,104.381644 C64.4095049,104.44147 64.2626504,104.496693 64.0974389,104.547315 L63.9964764,104.588732 L63.9368167,104.588732 L63.6431076,104.671568 L63.4182365,104.731393 L63.1061705,104.800423 L62.9226022,104.837238 L62.8904778,104.837238 C62.6747851,104.874054 62.4590924,104.906268 62.2433998,104.929277 L62.1929185,104.929277 L62.0414747,104.929277 L61.6559814,104.956889 L60.9905465,104.956889 L60.843692,104.956889 L60.5591612,104.956889 L60.4306634,104.956889 L60.2929872,104.956889 L60.0084565,104.924675 L59.8753695,104.924675 L59.7560502,104.924675 L59.4531626,104.874054 L59.3108972,104.851044 L59.2191131,104.851044 L58.8657442,104.763607 L58.7188896,104.726791 L58.6684084,104.726791 C58.4618941,104.666966 58.2553798,104.597936 58.058044,104.519703 L58.0259195,104.519703 C57.9387246,104.487489 57.8561189,104.446072 57.768924,104.409256 L57.6220694,104.344829 C57.4813338,104.274265 57.3436576,104.200634 57.2090409,104.123935 L0,70.9115932 L0,77.3543364 C0,78.1642813 0.532347886,78.9788281 1.60163286,79.6000926 L57.3650739,111.924256 C57.4935716,111.997887 57.6266586,112.066917 57.7643348,112.131344 L57.902011,112.195771 L58.1498281,112.301616 L58.1773633,112.301616 C58.3655208,112.375248 58.5628566,112.439675 58.7601925,112.499501 L58.8060845,112.499501 L58.9483499,112.536316 L59.2833619,112.619152 L59.3751461,112.642161 L59.508233,112.642161 L59.797353,112.692783 L59.9120832,112.692783 L60.0405809,112.692783 L60.3113441,112.724997 L60.4398418,112.724997 L60.577518,112.724997 L60.8482812,112.724997 L61.5458405,112.724997 L61.6330354,112.724997 L62.0001718,112.701987 L62.1470264,112.701987 L62.1929185,112.701987 C62.3994328,112.701987 62.605947,112.655967 62.8078721,112.619152 L62.8399965,112.619152 L63.0143864,112.582336 L63.3126847,112.517909 L63.5283774,112.458083 L63.808319,112.37985 L63.8679787,112.37985 L63.964352,112.343034 C64.1112066,112.292413 64.2488827,112.241791 64.3911481,112.181966 L64.5425919,112.117538 C64.721571,112.034703 64.8913716,111.951868 65.056583,111.855226 L120.489601,79.554073 L120.55385,79.5126554 C120.604331,79.4850436 120.645634,79.4528299 120.696115,79.4206162 C120.746597,79.3884025 120.829202,79.333179 120.888862,79.2871594 C120.941307,79.2498403 120.991852,79.2099064 121.040306,79.1675084 L121.210106,79.0294496 L121.242231,79.0018379 L121.439567,78.8039536 L121.471691,78.762536 L121.577243,78.6382831 C121.592456,78.6210079 121.606267,78.6025413 121.618546,78.5830596 C121.664059,78.5230502 121.705457,78.4600118 121.742454,78.3943792 L121.797525,78.3161459 C121.799253,78.3023944 121.799253,78.2884798 121.797525,78.2747283 C121.826396,78.2193358 121.852435,78.1625047 121.875541,78.1044558 C121.895086,78.0721408 121.911969,78.0382808 121.926023,78.0032127 C121.926023,78.0032127 121.926023,77.9802029 121.926023,77.970999 C121.926023,77.9617951 121.958147,77.8605519 121.971915,77.8099304 C121.985682,77.7593088 121.994861,77.736299 122.004039,77.6994834 L122.004039,77.7547069 C122.007386,77.6980376 122.007386,77.6411037 122.004039,77.5844344 C122.004039,77.5476187 122.004039,77.510803 122.004039,77.4739874 C122.007386,77.4571901 122.007386,77.440163 122.004039,77.4233658 L122.004039,70.9253991 L65.2539188,104.036497 Z" id="Path" fill="url(#linearGradient-3)"></path>
                    <path d="M120.544672,33.2261472 C122.669474,34.4594724 122.678652,36.4475188 120.544672,37.6854459 L65.1116535,69.9912013 C63.0006187,71.2199245 59.5587143,71.2199245 57.433912,69.9912013 L1.66129254,37.6900479 C-0.463509797,36.4567228 -0.477277415,34.4686763 1.6337573,33.2261472 L57.0667755,0.92499385 C59.1823994,-0.308331283 62.6197146,-0.308331283 64.7491062,0.92499385 L120.544672,33.2261472 Z" id="Path" fill="url(#linearGradient-4)"></path>
                </g>
                <g id="man2" transform="translate(344.000000, 150.000000)">
                    <path d="M103.589479,18.6096792 C103.589479,18.6096792 110.791409,27.6802904 109.869857,30.8951906 C108.948304,34.1100907 102.036664,35.0607826 95.240217,34.7576635 C88.4437703,34.4545443 83.3752338,23.0875759 83.3752338,23.0875759 L103.589479,18.6096792 Z" id="Path" fill="url(#linearGradient-5)"></path>
                    <path d="M56.378365,70.0021547 L50.8167981,78.9120209 C50.8167981,78.9120209 19.6038285,82.7010103 16.5074135,80.7858484 C10.6509499,77.1667893 -3.37046528,86.7012647 0.744264836,86.4211091 C4.85899496,86.1409535 5.56859007,85.4612318 7.35179338,84.9376623 C9.02441044,84.4462419 9.19489758,91.0321945 11.4987778,90.8576713 C13.4870158,90.6416813 15.4609441,90.3104449 17.4105345,89.865645 C17.4105345,89.865645 42.6794931,94.853333 52.0747167,95.0691905 C61.0322031,95.2758627 67.5337532,79.2518817 67.5337532,79.2518817 L56.378365,70.0021547 Z" id="Path" fill="#FFBBB6"></path>
                    <path d="M66.5384769,240.736317 C66.5384769,240.736317 66.8564124,248.144365 66.1099552,250.100862 C65.363498,252.057358 64.0456785,255.387076 62.1472812,261.123377 C60.2488838,266.859677 57.1109989,270.487922 51.1393413,268.407422 C45.1676837,266.326922 52.3926522,254.978325 53.0607775,251.735868 C53.7289027,248.493412 54.3371271,239.197758 54.3371271,239.197758 L66.5384769,240.736317 Z" id="Path" fill="url(#linearGradient-6)"></path>
                    <path d="M33.8556317,226.958173 C33.8556317,226.958173 36.159512,235.629218 34.4546406,236.860066 C32.7497692,238.090913 25.5432318,239.445764 20.133721,245.218806 C15.9867365,249.618627 11.22692,251.965504 7.37483219,246.964038 C3.52274441,241.962572 16.3138875,235.02298 18.6500221,232.67151 C20.9861567,230.32004 25.7644043,224.202545 25.7644043,224.202545 L33.8556317,226.958173 Z" id="Path" fill="url(#linearGradient-7)"></path>
                    <path d="M115.915238,113.25634 C115.915238,113.25634 123.342948,138.318783 107.782541,151.132457 C92.2221339,163.94613 78.560124,177.177741 78.560124,177.177741 L68.0498224,241.723751 L52.4940229,240.300009 C52.4940229,240.300009 53.8026269,174.132771 54.3371271,169.471166 C54.8716273,164.809561 73.3395314,150.930377 73.3395314,150.930377 C73.3395314,150.930377 49.5957416,167.464149 48.7939913,170.219778 C47.9922409,172.975407 35.081296,229.038673 35.081296,229.038673 L21.7187906,226.953581 C21.7187906,226.953581 21.442325,163.500637 24.8612833,156.92387 C28.2802415,150.347102 77.1455416,105.444133 77.1455416,105.444133 L115.915238,113.25634 Z" id="Path" fill="url(#linearGradient-8)"></path>
                    <path d="M69.3722496,79.3988486 C69.3722496,79.3988486 69.8929265,92.1895585 65.7459421,115.414916 C65.7459421,115.414916 90.7799049,138.83776 119.136063,119.470283 L113.60675,80.4827292 L119.007046,88.2903439 C119.007046,88.2903439 129.457446,87.2937249 133.42012,78.6456434 L120.426236,52.2191641 C115.357699,41.8993346 86.6329204,35.0745608 82.9697508,34.8127761 C79.3065812,34.5509913 73.8924627,35.3133819 70.422819,41.522732 C66.9531754,47.732082 52.0839322,71.3753763 52.0839322,71.3753763 C52.0839322,71.3753763 56.7746324,81.1073384 67.2895419,82.7101958 L69.3722496,79.3988486 Z" id="Path" fill="url(#linearGradient-9)"></path>
                    <path d="M132.39259,80.4827292 C133.613599,84.0639772 135.03974,87.5724523 136.663984,90.99086 C140.728029,99.3220442 133.539922,127.558053 134.96372,129.753371 C139.525403,136.775631 137.806708,141.101968 137.023389,142.433855 C136.24007,143.765743 136.428988,138.217743 135.134207,136.890449 C135.134207,136.890449 136.470458,143.150319 135.134207,145.180299 C133.797957,147.210278 132.599939,136.219913 132.599939,136.219913 C132.599939,136.219913 133.212771,144.307683 131.553977,146.365219 C129.895184,148.422755 130.084102,136.541403 130.084102,136.541403 C130.084102,136.541403 128.793929,144.064269 127.448463,144.261756 C126.102997,144.459242 127.337877,135.227886 126.784945,134.460903 C126.232014,133.69392 123.923526,138.300412 122.025129,137.730916 C120.126731,137.161419 126.393286,128.132142 126.393286,128.132142 L125.826531,94.2287238 L120.182025,88.0928572 C122.605185,87.5819468 124.935907,86.7053594 127.093665,85.4933808 C130.042632,83.9043015 132.39259,80.4827292 132.39259,80.4827292 Z" id="Path" fill="#FFBBB6"></path>
                    <path d="M86.6974291,40.0346925 C86.6974291,40.0346925 85.7159761,43.8879799 90.3145211,45.4403174 C96.106476,47.3968138 103.783005,44.7100758 100.612866,37.3341763 L99.6129817,32.4107864 C99.6129817,32.4107864 102.737043,27.4001348 102.377638,18.9954672 C102.018233,10.5907997 86.2965539,2.62243999 81.7026167,10.1269355 C77.1086795,17.631431 79.7811806,36.9437956 81.0990001,38.5099112 C82.4168196,40.0760269 86.6974291,40.0346925 86.6974291,40.0346925 Z" id="Path" fill="#FFBBB6"></path>
                    <rect id="Rectangle" fill="url(#linearGradient-10)" x="90.7430428" y="0" width="5.53392035" height="3.29297631" rx="1.64648815"></rect>
                    <path d="M96.318433,18.6050865 C96.318433,18.6050865 84.3382557,19.5236294 80.1451936,14.5956467 L79.1084475,25.0440723 C79.1084475,25.0440723 77.1870114,19.7165234 77.7952358,15.2248486 L84.7529541,1.84627124 C84.7529541,1.84627124 102.396069,-1.59826465 105.732088,9.27269061 C109.496628,21.5398311 100.787961,26.7250058 102.396069,30.2659887 C104.004177,33.8069716 100.838646,35.6073157 99.0093651,33.301773 C97.1800842,30.9962303 101.44687,27.4690255 100.714236,24.1898274 C99.9816026,20.9106292 96.3276485,28.1992671 94.8669884,28.1992671 C93.4063283,28.1992671 96.318433,18.6050865 96.318433,18.6050865 Z" id="Path" fill="url(#linearGradient-11)"></path>
                    <path d="M77.675434,16.7128881 C77.675434,16.7128881 78.1730722,14.0537064 87.9230934,14.4762362 C100.248853,15.008991 104.511031,23.8224102 104.511031,23.8224102 C104.511031,23.8224102 107.215787,20.7452915 107.215787,12.5243325 C107.215787,5.86489644 102.336168,1.47885408 91.8120432,0.90476476 C79.9700987,0.257192013 76.5188861,9.19920718 77.675434,16.7128881 Z" id="Path" fill="url(#linearGradient-12)"></path>
                    <path d="M79.8410815,11.5001572 C79.8410815,11.5001572 80.6105775,5.75007858 86.6006661,5.90163816 C92.5907547,6.05319774 91.7797889,11.5001572 91.7797889,11.5001572 C91.7797889,11.5001572 85.6007821,10.0534521 79.8410815,11.5001572 Z" id="Path" fill="url(#linearGradient-13)"></path>
                </g>
                <g id="table" transform="translate(178.000000, 216.000000)">
                    <path d="M332.001586,229.579135 C335.982531,231.875615 336.00094,235.586727 332.047609,237.878615 L238.239983,292.27764 C234.286651,294.57412 227.857311,294.57412 223.876366,292.27764 L16.3794015,172.722876 C12.403059,170.426395 12.3800478,166.715283 16.333379,164.418803 L110.145607,110.015185 C114.098939,107.718705 120.528279,107.718705 124.504622,110.015185 L332.001586,229.579135 Z" id="Path" fill="url(#linearGradient-14)"></path>
                    <path d="M12.5549332,60.250457 L21.0184677,60.250457 L21.0184677,166.526972 C21.0184677,168.860664 19.1228108,170.752496 16.7843994,170.752496 L16.7843994,170.752496 C14.445988,170.752496 12.550331,168.860664 12.550331,166.526972 L12.550331,60.250457 L12.5549332,60.250457 Z" id="Path" fill="url(#linearGradient-15)"></path>
                    <path d="M214.312894,176.112481 L222.776429,176.112481 L222.776429,282.398182 C222.776429,284.731874 220.880772,286.623705 218.54236,286.623705 L218.54236,286.623705 C216.203949,286.623705 214.308292,284.731874 214.308292,282.398182 L214.308292,176.112481 L214.312894,176.112481 Z" id="Path" fill="url(#linearGradient-16)"></path>
                    <path d="M104.245525,8.7863336 L112.70906,8.7863336 L112.70906,115.062849 C112.70906,117.396541 110.813403,119.288372 108.474991,119.288372 L108.474991,119.288372 C106.13658,119.288372 104.240923,117.396541 104.240923,115.062849 L104.240923,8.7863336 L104.245525,8.7863336 Z" id="Path" fill="url(#linearGradient-17)"></path>
                    <path d="M306.003486,124.648357 L314.46702,124.648357 L314.46702,230.924872 C314.46702,233.258565 312.571363,235.150396 310.232952,235.150396 L310.232952,235.150396 C307.894541,235.150396 305.998884,233.258565 305.998884,230.924872 L305.998884,124.648357 L306.003486,124.648357 Z" id="Path" fill="url(#linearGradient-18)"></path>
                    <path d="M318.705691,129.581197 L224.893463,183.989408 C220.940132,186.285888 214.510791,186.285888 210.534448,183.989408 L3.03288159,64.4300511 C1.03550586,63.277218 0.036817986,61.761541 0.036817986,60.250457 L0,67.5073347 C0,69.0184187 0.994085621,70.5295027 2.99146136,71.6823358 L210.493028,191.241693 C214.469371,193.538173 220.898711,193.538173 224.852043,191.241693 L318.664271,136.833482 C320.629431,135.694428 321.60971,134.206308 321.614312,132.699817 L321.655732,125.442939 C321.65113,126.949431 320.652442,128.442143 318.705691,129.581197 Z" id="Path" fill="url(#linearGradient-19)"></path>
                    <path d="M318.659669,121.277124 C322.636011,123.573605 322.659022,127.28931 318.705691,129.581197 L224.893463,183.989408 C220.940132,186.285888 214.510791,186.285888 210.534448,183.989408 L3.03288159,64.4300511 C-0.94346089,62.1335708 -0.961869883,58.4224586 2.99146136,56.1305713 L96.8036896,1.72236022 C100.757021,-0.574120073 107.181759,-0.574120073 111.158102,1.72236022 L318.659669,121.277124 Z" id="Path" fill="#EAF0FE"></path>
                </g>
                <g id="paper2" transform="translate(246.000000, 246.000000)">
                    <polygon id="Path" fill="url(#linearGradient-20)" points="51.099012 0 88 21.386947 36.900988 51 0 29.613053"></polygon>
                    <polygon id="Path" fill="#EAF0FE" points="9.9478663 28.6706718 38.52428 45.2342982 36.8362413 46.2138176 8.25982762 29.6501912"></polygon>
                    <polygon id="Path" fill="#EAF0FE" points="21.5560227 21.9440197 50.1370612 38.5076461 48.4443977 39.4871655 19.867984 22.923539"></polygon>
                    <polygon id="Path" fill="#EAF0FE" points="26.458272 19.1029492 55.0393105 35.6619334 53.3512718 36.6414528 24.7702333 20.0824686"></polygon>
                    <polygon id="Path" fill="#EAF0FE" points="42.7698129 22.8678318 59.9461846 32.8208629 58.2581459 33.8003823 41.0817742 23.8473512"></polygon>
                    <polygon id="Path" fill="#EAF0FE" points="37.9693084 12.4320044 66.5503469 28.9909885 64.8623082 29.9705079 36.2812697 13.4068815"></polygon>
                    <polygon id="Path" fill="#EAF0FE" points="42.8761825 9.58629164 71.4572209 26.1499181 69.7691823 27.1294375 41.1881438 10.565811"></polygon>
                    <polygon id="Path" fill="#EAF0FE" points="59.1877234 13.3558165 76.364095 23.3088476 74.6714316 24.2837247 57.4996847 14.3353359"></polygon>
                    <polygon id="Path" fill="#EAF0FE" points="20.3258356 30.3372474 35.6523019 39.2179137 33.9642632 40.1974331 18.6377969 31.3167668"></polygon>
                </g>
                <g id="paper1" transform="translate(246.000000, 244.000000)">
                    <polygon id="Path" fill="#FFFFFF" points="51.0970726 0 88 21.3842513 36.9029274 51 0 29.6157487"></polygon>
                    <polygon id="Path" fill="#EAF0FE" points="9.94376412 28.6732817 38.5216797 45.238416 36.8335523 46.2180246 8.25563673 29.6528903"></polygon>
                    <polygon id="Path" fill="#EAF0FE" points="21.5525306 21.9460173 50.1350712 38.5111516 48.4469438 39.4861174 19.8644032 22.9256259"></polygon>
                    <polygon id="Path" fill="#EAF0FE" points="26.4596626 19.1046882 55.0375782 35.6651798 53.3494508 36.6447883 24.7715352 20.0796541"></polygon>
                    <polygon id="Path" fill="#EAF0FE" points="42.7720608 22.8699135 59.9447101 32.8238507 58.2565828 33.8034593 41.0839334 23.8495221"></polygon>
                    <polygon id="Path" fill="#EAF0FE" points="37.9713039 12.4331361 66.5492195 28.9936277 64.8610921 29.9732362 36.2831765 13.408102"></polygon>
                    <polygon id="Path" fill="#EAF0FE" points="42.8738109 9.58716431 71.4563515 26.1522986 69.7682241 27.1319071 41.1856835 10.5667729"></polygon>
                    <polygon id="Path" fill="#EAF0FE" points="59.1862091 13.3570323 76.3634835 23.3063268 74.6753561 24.2859354 57.4980817 14.3366409"></polygon>
                    <polygon id="Path" fill="#EAF0FE" points="20.3222789 30.3400091 35.6495506 39.2214838 33.9614232 40.2010924 18.6341515 31.3196177"></polygon>
                </g>
                <g id="laptop" transform="translate(312.000000, 253.000000)">
                    <polygon id="Path" fill="url(#linearGradient-21)" points="130 77.6560467 87.8545558 102 41.5176479 75.4125124 83.6677083 51.0685591"></polygon>
                    <path d="M109.675094,62.1852946 C109.673093,62.1943628 109.673093,62.2037545 109.675094,62.2128227 C109.64037,62.3009143 109.597081,62.3854281 109.545842,62.4651629 L109.513529,62.511043 C109.448883,62.5971434 109.376244,62.6770196 109.29657,62.7496192 C109.236247,62.7991413 109.173051,62.8451005 109.107308,62.8872594 C109.051914,62.9285514 109.001136,62.9698435 108.93651,63.0111355 L70.62247,85.1299065 C70.3597016,85.2736911 70.0786769,85.381712 69.7869469,85.4510668 L69.6576948,85.4831828 C69.3543587,85.5494462 69.0450164,85.5848037 68.7344649,85.588707 L68.7021518,85.588707 C68.3682037,85.5894047 68.0352529,85.5524647 67.7096797,85.4785948 L67.6727505,85.4785948 C67.3610793,85.4079961 67.0611007,85.2936796 66.7818337,85.1390825 L0.821674597,47.2926312 C0.365889274,47.089566 0.0554416374,46.6582905 0.00923229884,46.163982 L0.00923229884,50.0683741 C0.0561455993,50.5599571 0.364410019,50.988896 0.817058448,51.1924352 L66.7633691,89.0342985 C66.8900115,89.1052128 67.0210674,89.1680425 67.1557418,89.2224067 C67.2634519,89.2621694 67.3742395,89.2988735 67.4881045,89.3325188 L67.6496698,89.3738109 L67.686599,89.3738109 L67.7743058,89.3738109 L68.0420425,89.4196909 L68.3097791,89.451807 L68.3097791,89.438043 L68.3097791,89.438043 L68.3097791,89.465571 L68.5775158,89.465571 L68.8591009,89.465571 L69.1637668,89.465571 C69.2791705,89.465571 69.3991904,89.438043 69.509978,89.4196909 L69.6576948,89.3829869 L69.7915631,89.3508709 L70.0269867,89.2912268 C70.235847,89.2256169 70.4370294,89.137944 70.6270861,89.0297105 L108.941126,66.9063515 L108.973439,66.9063515 C109.024217,66.8742355 109.065762,66.8375315 109.111924,66.8054154 C109.158085,66.7732994 109.245792,66.7136553 109.301186,66.6677753 L109.301186,66.6677753 C109.361471,66.611158 109.417046,66.5497843 109.467367,66.4842551 L109.49968,66.4429631 L109.527377,66.397083 L109.578155,66.3236749 C109.607393,66.2739642 109.632111,66.2217599 109.652013,66.1676828 C109.652461,66.1600426 109.652461,66.152383 109.652013,66.1447428 C109.652603,66.1340454 109.652603,66.1233241 109.652013,66.1126267 C109.663364,66.0811498 109.672616,66.0489641 109.67971,66.0162786 C109.686476,65.9644987 109.686476,65.9120664 109.67971,65.8602865 L109.67971,65.8602865 L109.67971,61.9558944 C109.687113,62.0322809 109.684785,62.1092635 109.675094,62.1852946 L109.675094,62.1852946 Z" id="Path" fill="url(#linearGradient-22)"></path>
                    <path d="M108.913429,60.7859532 C109.984376,61.4007458 109.988992,62.3963429 108.913429,63.0111355 L70.5993892,85.1299065 C69.3856841,85.7444031 67.9493773,85.7444031 66.7356722,85.1299065 L0.821674597,47.2926312 C-0.253888218,46.6732505 -0.263120517,45.6776535 0.821674597,45.0628609 L39.1357148,22.9395019 C40.3531788,22.3271028 41.7912002,22.3271028 43.0086642,22.9395019 L108.913429,60.7859532 Z" id="Path" fill="#FFFFFF"></path>
                    <path d="M31.7221788,36.7448082 C30.594898,36.09354 29.2027016,36.09354 28.0754208,36.7448082 L12.3297351,45.8519977 C11.4942121,46.3107982 11.4988282,47.118287 12.3297351,47.6046155 L64.2152546,77.3761784 C65.1671036,77.8552761 66.2915996,77.8552761 67.2434486,77.3761784 L82.2367019,68.7186134 C82.7690949,68.4116266 83.0967833,67.8461434 83.0967833,67.2343939 C83.0967833,66.6226444 82.7690949,66.0571612 82.2367019,65.7501743 L31.7221788,36.7448082 Z" id="Path" fill="url(#linearGradient-23)"></path>
                    <path d="M80.2794546,47.090759 C80.5933527,47.2696911 80.5933527,47.5495594 80.2794546,47.7376676 L69.1360699,54.1608743 C68.7822139,54.3398456 68.3635854,54.3398456 68.0097294,54.1608743 L48.8203963,43.1496629 C48.6787633,43.1047586 48.5826133,42.9739666 48.5826133,42.8262085 C48.5826133,42.6784505 48.6787633,42.5476584 48.8203963,42.5027542 L59.963781,36.0795475 C60.3176369,35.9005763 60.7362655,35.9005763 61.0901214,36.0795475 L80.2794546,47.090759 Z" id="Path" fill="url(#linearGradient-24)"></path>
                    <path d="M69.7038563,37.0522045 L5.73325758,0.34816641 C5.19564604,-0.0382816928 4.49075739,-0.108340788 3.88679781,0.164646219 L0.900149137,1.89432402 C1.36176408,1.61904373 2.03110575,1.65574777 2.74660891,2.0732562 L66.7125914,38.7772943 C68.2500905,39.7710673 69.2175129,41.4349811 69.3160997,43.255187 L69.1868475,88.6030261 C69.2475969,89.2517758 68.9577066,89.8838998 68.4251829,90.2638838 L71.4118315,88.538794 C71.9497217,88.1632163 72.2411119,87.5278215 72.1734962,86.8779363 L72.3027484,41.5300972 C72.2059432,39.7105264 71.2401557,38.046474 69.7038563,37.0522045 L69.7038563,37.0522045 Z" id="Path" fill="url(#linearGradient-25)"></path>
                    <path d="M66.7125914,38.7772943 C68.2500905,39.7710673 69.2175129,41.4349811 69.3160997,43.255187 L69.1868475,88.6030261 C69.1868475,90.2501198 68.0097294,90.8970285 66.5694908,90.0849516 L2.59889212,53.3809135 C1.06259268,52.386644 0.0968051668,50.7225916 0,48.9030208 L0.129252184,3.55518174 C0.129252184,1.90808803 1.30637029,1.26117936 2.74660891,2.0732562 L66.7125914,38.7772943 Z" id="Path" fill="url(#linearGradient-26)"></path>
                </g>
                <g id="plant" transform="translate(215.000000, 372.000000)">
                    <polygon id="Path" fill="url(#linearGradient-27)" points="121.170803 192.660949 80.8484035 169.262173 47.5172399 188.601224 87.8396392 212"></polygon>
                    <path d="M97.4382431,124.817416 L97.2867587,179.093165 C97.2867587,183.212862 94.5784008,187.323333 89.1984085,190.465007 C78.3695675,196.789873 60.7376987,196.789873 49.849182,190.465007 C44.3636097,187.281814 41.6231187,183.083689 41.6368384,178.931698 L41.7883745,124.655949 C41.7883745,128.80794 44.5150941,133.010678 50.0006664,136.189258 C60.9029544,142.518737 78.5210519,142.518737 89.3544834,136.189258 C94.7344756,133.042971 97.4244718,128.9325 97.4382431,124.817416 Z" id="Path" fill="url(#linearGradient-28)"></path>
                    <ellipse id="Oval" fill="url(#linearGradient-29)" transform="translate(69.600808, 124.714920) rotate(-89.840000) translate(-69.600808, -124.714920) " cx="69.6008081" cy="124.71492" rx="16.1973776" ry="27.8272304"></ellipse>
                    <path d="M63.0558694,122.870593 C63.0558694,122.870593 29.4905935,111.627924 43.31699,83.2190792 C57.1433865,54.8102341 35.9722907,42.9724464 53.9163092,34.0964123 C71.8603277,25.2203782 45.0475848,4.21130375 61.2610085,0.363792092 C77.4744323,-3.48371957 68.3440529,24.3300068 83.9469485,29.953648 C99.5498441,35.5772891 72.7600534,52.9695181 85.7142668,61.4349664 C98.6684802,69.9004147 100.431208,123.465712 63.0558694,122.870593 Z" id="Path" fill="url(#linearGradient-30)"></path>
                    <path d="M85.2827657,133.74881 C83.8261779,134.587216 82.2880145,135.273565 80.6923286,135.797125 C78.7976607,136.427894 76.8492038,136.881917 74.8716544,137.153442 C70.3365191,137.788693 65.7241087,137.587018 61.2610085,136.558324 L61.2610085,136.558324 C59.461663,136.13933 57.707414,135.544454 56.0233198,134.782194 C55.3392754,134.473546 54.6712713,134.13018 54.0218893,133.753423 C49.3442339,131.040789 47.182138,127.41933 47.5401921,123.867071 C47.8339801,120.845344 49.9639429,117.869751 53.9208996,115.563089 C58.9336569,112.633629 65.7779986,111.411098 72.3331427,111.90011 C72.5626646,111.90011 72.7921864,111.937017 73.0217083,111.960084 C77.4652514,112.366056 81.7435387,113.570133 85.1680048,115.563089 C88.7026413,117.611405 90.8004711,120.176412 91.461494,122.842913 C92.4392571,126.708878 90.3827413,130.773216 85.2827657,133.74881 Z" id="Path" fill="url(#linearGradient-31)"></path>
                    <path d="M124.301481,95.6473722 C113.114586,95.0568668 128.717481,112.21843 116.038694,114.289812 C103.359907,116.361194 93.9541013,107.185294 93.3665254,117.251565 C93.239788,119.251456 92.5819498,121.180646 91.461494,122.8383 C88.541976,127.33629 83.0793559,130.436443 80.6969191,135.797125 C78.8022512,136.427894 76.8537942,136.881917 74.8762449,137.153442 C70.3411096,137.788693 65.7286992,137.587018 61.265599,136.558324 L61.265599,136.558324 C64.1655874,128.000683 67.8779873,119.743248 72.3515045,111.90011 C72.4892176,111.655604 72.6315211,111.411098 72.7738247,111.166592 C81.6609109,95.7811586 95.7856857,78.5411693 115.464889,75.5286692 C152.271014,69.918868 135.488376,96.2424909 124.301481,95.6473722 Z" id="Path" fill="url(#linearGradient-32)"></path>
                    <path d="M74.8946066,137.153442 C70.3594713,137.788693 65.7470609,137.587018 61.2839607,136.558324 L61.2839607,136.558324 C59.4846152,136.13933 57.7303662,135.544454 56.046272,134.782194 C53.6776065,131.479055 50.7810407,127.65461 47.5631443,123.867071 C41.4854056,116.697967 34.2830098,109.676488 27.4340777,106.599402 C10.9406373,99.2180845 27.7278657,86.4806988 11.8265917,77.0095459 C-4.07468234,67.5383931 -4.66225828,48.8959536 14.4752739,48.8959536 C33.612806,48.8959536 16.8347585,61.914752 41.7929649,67.5383931 C66.7511713,73.1620343 40.3882911,83.2236925 61.2793703,96.2471042 C67.1459488,99.9054697 70.6989471,105.298445 72.7554629,111.166592 C72.8472717,111.429551 72.93449,111.692511 73.0217083,111.960084 C75.9687689,120.849958 75.6428479,130.685563 74.8946066,137.153442 Z" id="Path" fill="url(#linearGradient-33)"></path>
                </g>
                <g id="dialog_instagram" transform="translate(93.000000, 62.000000)">
                    <path d="M132.346216,71.310415 L10.4578945,0.915028914 C8.61347717,-0.155062134 6.92583528,-0.256536285 5.71313086,0.453782773 L2.48540046,2.33105457 C3.69810488,1.62534797 5.37652469,1.72220966 7.23477519,2.79230071 L129.123097,73.1830743 C132.811932,75.3140315 135.786055,80.4707634 135.772222,84.7142279 L135.23273,275.264234 C135.23273,277.372129 134.485741,278.852729 133.286869,279.54921 L136.5146,277.671939 C137.70886,276.975457 138.455849,275.494857 138.46046,273.391574 L139,82.8415686 C139.013785,78.5934916 136.035051,73.4367597 132.346216,71.310415 Z" id="Path" fill="url(#linearGradient-34)"></path>
                    <path d="M129.123097,73.1830743 C132.811932,75.3140315 135.786055,80.4707634 135.77227,84.7142279 L135.23273,275.264234 C135.23273,279.503086 132.226329,281.214309 128.537494,279.083352 L6.64917267,208.678741 C2.96033794,206.552396 -0.0137850703,201.391052 0,197.147587 L0.53954014,6.59758138 C0.53954014,2.35872934 3.54594045,0.652118614 7.23477519,2.77846333 L129.123097,73.1830743 Z" id="Path" fill="url(#linearGradient-35)"></path>
                    <polygon id="Path" fill="url(#linearGradient-36)" points="127.195681 125.576024 127.195681 261.731272 8.57658882 193.226995 8.57658882 57.0671342"></polygon>
                    <path d="M30.1424389,45.0286099 C30.1424389,51.9934266 25.2224556,54.7978032 19.1543224,51.2923325 C13.0861893,47.7868618 8.16620596,39.2999328 8.16620596,32.3351161 C8.16620596,25.3702993 13.0861893,22.5659228 19.1543224,26.066781 C25.2224556,29.5676392 30.1424389,38.0637931 30.1424389,45.0286099 Z M96.9656802,79.9680051 L96.9656802,79.9680051 C96.9656802,78.4228305 96.0434715,76.6331955 94.8676554,75.9643886 L37.5616078,42.8653655 C36.4042359,42.1965586 35.4681941,42.9068776 35.4681941,44.4520522 L35.4681941,44.4520522 C35.4681941,45.9972268 36.3904027,47.7868618 37.5616078,48.4556687 L94.8676554,81.5546918 C96.0250273,82.2188863 96.9656802,81.5131797 96.9656802,79.9680051 L96.9656802,79.9680051 Z M79.0702207,78.1230205 L79.0702207,78.1230205 C79.0572518,77.3266626 78.6670902,76.5837583 78.0189028,76.1212123 L36.519512,52.1364129 C35.9385205,51.8043157 35.4728051,52.1594752 35.4728051,52.9297563 L35.4728051,52.9297563 C35.4832273,53.7256598 35.8719208,54.4690293 36.519512,54.9315645 L78.0189028,78.9163639 C78.5998942,79.2484611 79.0702207,78.8933016 79.0702207,78.1184081 L79.0702207,78.1230205 Z" id="Shape" fill="url(#linearGradient-37)" fill-rule="nonzero"></path>
                    <path d="M127.19107,222.728298 L127.19107,261.731272 L8.57658882,193.226995 L8.57658882,146.664197 L32.3419066,133.108173 C39.286138,129.146069 50.5463061,135.649639 57.4905374,147.632814 L88.6289137,201.358765 L95.7345316,197.309023 C102.678763,193.351532 113.938931,199.855102 120.883162,211.833664 L127.19107,222.728298 Z" id="Path" fill="#FFFFFF" opacity="0.3"></path>
                    <ellipse id="Oval" fill="#FFFFFF" opacity="0.3" transform="translate(97.001844, 152.403830) rotate(-30.310000) translate(-97.001844, -152.403830) " cx="97.0018436" cy="152.40383" rx="8.87234267" ry="15.367518"></ellipse>
                </g>
                <g id="love" transform="translate(116.000000, 186.000000)">
                    <g id="Group" opacity="0.2" transform="translate(20.696675, 0.000000)" fill="url(#linearGradient-38)">
                        <path d="M36.5054187,14.4280655 C44.702853,19.135141 51.326343,30.5358061 51.3033247,39.8994913 C51.3033247,45.2855601 49.0692791,48.8181605 45.6352188,49.9559332 L25.5570437,57.842349 L5.58964468,26.9756789 C2.17404707,21.9015801 -0.0137816709,15.8456935 0,10.4596248 C0.0277593811,1.09593961 6.69740607,-2.67981388 14.8948403,2.02267376 C19.155106,4.46796733 22.9907298,8.72543907 25.6862825,13.5563849 C28.4002979,11.8359626 32.2451531,11.982772 36.5054187,14.4280655 Z" id="Path"></path>
                    </g>
                    <path d="M54.5434667,49.4971539 C54.5434667,49.4558637 54.5434667,49.4099858 54.5434667,49.3686957 L54.5434667,49.1026037 L54.5434667,48.7814582 C54.5434667,48.7034657 54.5434667,48.6208854 54.5434667,48.5383052 C54.5434667,48.4557249 54.5434667,48.3456179 54.5434667,48.253862 C54.5434667,48.1621062 54.5434667,48.1254038 54.5434667,48.0611747 C54.5434667,47.9281287 54.5157726,47.7950827 54.5019256,47.6620368 L54.4742316,47.4188837 C54.4742316,47.391357 54.4742316,47.3638302 54.4742316,47.3408913 C54.4419219,47.0885626 54.4049965,46.8408218 54.3680711,46.5884932 L54.3680711,46.5884932 L54.3680711,46.5105008 C54.3311457,46.2902867 54.2942204,46.0517215 54.2526793,45.8452708 C54.2526793,45.8131562 54.2526793,45.7810417 54.2526793,45.7489271 C54.2526793,45.6434079 54.2065226,45.5378887 54.1880599,45.4323694 C54.1695972,45.3268502 54.1372875,45.175453 54.1049778,45.0469948 C54.1049778,44.9919413 54.0818994,44.9368878 54.0680524,44.8818343 L53.9849703,44.5285743 L53.9157352,44.2303677 L53.8557315,44.0193292 L53.7449553,43.6018401 C53.721877,43.5192598 53.7034143,43.4366796 53.6803359,43.3586871 C53.6572576,43.2806946 53.6295635,43.2072899 53.6111008,43.1292974 C53.5649441,42.9733125 53.5141717,42.8173275 53.468015,42.6705182 C53.4449366,42.5925257 53.4218583,42.5145332 53.3941642,42.4365407 C53.3664702,42.3585482 53.3480075,42.2989069 53.3249291,42.2255023 C53.2695411,42.0511661 53.2095373,41.87683 53.1449179,41.7024939 C53.1172239,41.6199136 53.0941455,41.5373333 53.0618358,41.4547531 C53.0295261,41.3721728 53.0202948,41.3492338 53.0018321,41.2941803 C52.9095186,41.0372639 52.8125895,40.7803475 52.7110447,40.5280189 C52.6833507,40.4546142 52.6602723,40.3812095 52.6279626,40.3078049 C52.6223134,40.2872016 52.6145812,40.2672194 52.6048842,40.2481635 C52.4479514,39.8582012 52.2817872,39.4682388 52.1110073,39.0828642 C52.1110073,39.0461618 52.0833133,39.0140473 52.0648506,38.9819327 L52.0048468,38.8580623 C51.7740632,38.3442295 51.5432796,37.8395723 51.2755706,37.3395029 L51.2478765,37.2844494 L51.1878728,37.1789302 C50.9201638,36.6650974 50.6432235,36.1558524 50.3524361,35.6557829 L50.3062794,35.5732027 C50.0062607,35.0593699 49.6923949,34.5547127 49.3831449,34.059231 L49.3554508,34.0179409 C49.0323538,33.5270471 48.6954097,33.0453288 48.3492342,32.5727862 L48.2615365,32.4489158 C47.9245924,31.9901365 47.5784169,31.5313572 47.2276258,31.1184558 L47.1445437,31.0129366 L47.0937713,30.9532953 C46.7383646,30.5266306 46.3737264,30.1091414 46.0044726,29.7054156 C45.9721629,29.6687133 45.9444689,29.632011 45.9121592,29.5998964 L45.8244614,29.5081406 C45.5475211,29.2145218 45.2659651,28.9209031 44.984409,28.6364599 L44.9613307,28.6364599 L44.8320918,28.5125895 L44.2135917,27.925352 L44.1305096,27.8473596 C44.0612745,27.7785427 43.9874238,27.7189014 43.913573,27.6546723 C43.8397223,27.5904432 43.6274013,27.3977559 43.4796998,27.2738854 L43.3596923,27.1683662 L43.1196774,26.9710911 L42.7827333,26.6958236 L42.6581101,26.5948921 L42.3811698,26.3838536 L42.0811511,26.154464 L41.9796063,26.0764715 L41.6195838,25.8241429 L41.3795688,25.6543946 L41.3241808,25.6131044 C41.1118598,25.4708829 40.8995389,25.3286613 40.687218,25.1956153 L40.687218,25.1956153 L40.6225986,25.158913 C40.4379717,25.0396303 40.2487291,24.9249355 40.0594865,24.8148285 L39.9164007,24.7322482 L39.4548334,24.4661562 L39.2794379,24.3744004 L39.0348072,24.25053 L38.8501803,24.1541863 L38.5501616,24.0165525 L38.3378407,23.9156211 L38.2501429,23.874331 L37.6547212,23.6265902 L37.6316428,23.6265902 C37.4424003,23.5485977 37.2531577,23.4797808 37.0639151,23.4109639 L36.980833,23.3834371 L36.7592807,23.3146202 L36.4638777,23.2182766 L36.3115605,23.1769865 L36.0530828,23.1035818 L35.8592246,23.0531161 L35.642288,23.0026503 L35.374579,22.943009 L35.2407245,22.9154823 C35.1576424,22.9154823 35.0699446,22.8879555 34.9868625,22.8741921 L34.7053065,22.8283142 L34.6037617,22.8283142 L34.3498997,22.8007874 L34.0314183,22.7686729 L33.9437205,22.7686729 L33.7313996,22.7686729 L33.3390674,22.7686729 L33.2421383,22.7686729 L33.0759741,22.7686729 L32.6144069,22.7686729 L32.4805524,22.7686729 L32.3697762,22.7686729 C32.148224,22.7916119 31.9312873,22.8237264 31.7189664,22.8604288 L31.626653,22.8604288 L31.5989589,22.8604288 L31.4189477,22.9017189 C31.2897089,22.9292456 31.1650857,22.9567724 31.0404626,22.9934747 L30.8281416,23.0577038 L30.5927423,23.1311085 L30.5142759,23.1632231 C30.3793,23.2100061 30.246812,23.2635999 30.1173281,23.3237958 L29.9234698,23.4017883 C29.7296116,23.4935442 29.5449847,23.5898878 29.3603578,23.695407 L29.0972645,23.8468042 C28.8664808,23.4293151 28.6356972,23.0210015 28.3772196,22.6172757 C28.3218315,22.5209321 28.2618277,22.4291762 28.201824,22.3328326 C27.9525777,21.9336946 27.6987157,21.5391444 27.4356224,21.149182 C27.4033127,21.1033041 27.371003,21.062014 27.3433089,21.016136 C27.0986783,20.662876 26.849432,20.3142037 26.5909543,19.9701193 L26.4063274,19.7132029 C26.1247714,19.3461795 25.8385997,18.979156 25.5478123,18.625896 L25.49704,18.5662547 L25.4139578,18.4653232 C25.0447041,18.0065439 24.6708346,17.5936426 24.2877338,17.1807412 L24.2877338,17.1807412 L24.2600397,17.1532145 C23.9923307,16.8641835 23.7200061,16.5843282 23.4476814,16.3090606 L23.3461366,16.2081292 L23.156894,16.0292052 C22.9999612,15.8732203 22.8384126,15.7218231 22.6953268,15.570426 L22.5337782,15.414441 L22.3629984,15.2630438 L21.9752819,14.9235472 L21.776808,14.749211 L21.6014124,14.6069895 L21.269084,14.3317219 C21.1998489,14.2812562 21.1352295,14.2262027 21.0706101,14.1711492 L20.8490578,14.0059886 L20.5536548,13.7811868 L20.3967219,13.6573164 L20.0920875,13.4462779 L19.6305203,13.2535906 L19.5335911,13.1847737 C19.3535799,13.0609033 19.1735687,12.9462085 18.9935575,12.8269259 L18.915091,12.7764601 L18.915091,12.7764601 C18.7073858,12.6434141 18.4996805,12.5195437 18.2873596,12.3956733 L18.1442737,12.3130931 L17.6827065,12.0470011 L17.5026953,11.9552452 L17.2626803,11.8313748 L17.0734377,11.7350312 L16.773419,11.5973974 L16.5610981,11.4964659 L16.4687846,11.4551758 C16.2703107,11.3634199 16.0718368,11.2808397 15.8779786,11.2028472 L15.8779786,11.2028472 C15.674889,11.1248547 15.4764151,11.0468622 15.2779412,10.9780453 L15.1994747,10.9780453 L14.9871538,10.9092285 L14.6825194,10.808297 L14.5348179,10.7670069 L14.2717246,10.69819 C14.2024895,10.69819 14.1378701,10.6568998 14.068635,10.6431365 L13.8609297,10.5926707 L13.5978364,10.5376172 L13.4593662,10.5055027 L13.2193512,10.4688003 L12.9147169,10.4183346 L12.8085564,10.4183346 L12.5639258,10.3953957 C12.4577653,10.3953957 12.3516048,10.3678689 12.2454444,10.3632811 L12.1485152,10.3632811 L11.9361943,10.3632811 L11.5577092,10.3632811 L11.4515487,10.3632811 L11.2900002,10.3632811 C11.1330673,10.3632811 10.9761344,10.3632811 10.8284329,10.3632811 L10.6853471,10.3632811 L10.5884179,10.3632811 C10.348403,10.3862201 10.1268507,10.4183346 9.8914514,10.4596248 L9.83144766,10.4596248 L9.83144766,10.4596248 L9.69297749,10.4917393 C9.54989164,10.5238539 9.41142147,10.5559684 9.2729513,10.5972585 L9.07447738,10.6568998 C8.9867796,10.6844266 8.89446616,10.7073656 8.80676838,10.7394801 L8.74214896,10.7670069 C8.60868488,10.8138009 8.47773404,10.8673961 8.34981681,10.9275796 L8.16057424,11.0055721 C7.96979311,11.0942694 7.78516621,11.1906131 7.60669354,11.2946031 L4.37572283,13.1710103 C4.55573405,13.0654911 4.74036095,12.9737352 4.92960352,12.8865672 L5.11884609,12.8039869 L5.51117825,12.6434141 L5.84350667,12.5378949 L6.04198058,12.4736658 L6.46200677,12.3727344 L6.60047695,12.3406198 L6.67432771,12.3406198 C6.90475338,12.2951101 7.13738343,12.2614217 7.37129425,12.2396884 L7.61130921,12.2167494 C7.76824208,12.2167494 7.92055927,12.2167494 8.07287646,12.2167494 L8.33596979,12.2167494 L8.71445493,12.2167494 L9.02370498,12.2167494 L9.34218638,12.248864 L9.69759316,12.2901541 L9.99761187,12.3406198 L10.376097,12.4094367 L10.6391903,12.469078 L11.0499852,12.5700095 L11.3130785,12.6434141 L11.7746458,12.7810479 L11.9915824,12.8544526 C12.2131346,12.9278573 12.4531496,13.0104376 12.6608549,13.1021934 L12.6608549,13.1021934 C12.8870228,13.1893615 13.1224221,13.2902929 13.3439744,13.3912244 L13.5562953,13.4921558 L14.0455566,13.730721 L14.2855716,13.8545914 C14.5025082,13.9692863 14.7194448,14.0839811 14.9363814,14.2078515 C15.153318,14.3317219 15.4579524,14.5198214 15.7210457,14.6666308 L15.8041278,14.7262721 C16.0164487,14.8593181 16.2287697,15.0015397 16.4364749,15.1437612 L16.6903369,15.3226851 L17.1519042,15.657594 L17.4519229,15.8869837 L17.8673334,16.212717 L18.1996618,16.4833967 L18.5735313,16.8045422 L18.9612478,17.1440389 L19.2935762,17.4468332 L19.7782218,17.9056125 L20.0643935,18.1854679 C20.3413338,18.4607354 20.6136585,18.7405908 20.8813675,19.0296217 L20.9090615,19.0571485 C21.2921624,19.4746377 21.6660318,19.9058902 22.0352856,20.3463183 L22.1691401,20.5023032 C22.4599275,20.8601511 22.7460992,21.2225867 23.0276552,21.5941979 L23.2168978,21.8465265 C23.4692212,22.1921403 23.7184675,22.5408125 23.9646367,22.8925433 L24.0569501,23.0301771 C24.3200435,23.4155517 24.5785211,23.8146897 24.8277674,24.2138276 L24.9985473,24.493683 C25.2477936,24.9019966 25.4924243,25.3148979 25.7232079,25.7277993 L26.101693,25.512173 C26.2493946,25.4295927 26.3924804,25.3516003 26.5632603,25.2827834 L26.7571185,25.2002031 C26.8863574,25.1451496 27.0202119,25.0900961 27.158682,25.0396303 L27.4725478,24.9386989 L27.680253,24.8744698 C27.8048762,24.8377675 27.934115,24.8056529 28.0587382,24.7781262 L28.2387494,24.736836 L28.3587569,24.736836 C28.5710778,24.6955459 28.7880144,24.6680191 29.0095667,24.6450802 L29.2541973,24.6450802 L29.7157646,24.6221412 L29.9834736,24.6221412 L30.3711901,24.6221412 L30.6712088,24.6221412 L30.9896902,24.6542557 L31.3450969,24.6955459 L31.626653,24.7414238 L32.0143695,24.8148285 L32.2866941,24.8744698 L32.697489,24.9754012 L32.951351,25.0442181 L33.4129182,25.1818519 L33.6344705,25.2552566 C33.8514071,25.3286613 34.0683437,25.4112416 34.289896,25.4984096 L34.289896,25.4984096 C34.5160639,25.5901655 34.7514632,25.6865091 34.9730155,25.7920284 L35.1853364,25.888372 L35.6745977,26.1269372 L35.9146127,26.2508077 C36.1315493,26.3655025 36.3484859,26.4801973 36.5654225,26.6040677 C36.7823591,26.7279381 37.0269897,26.8839231 37.276236,27.0353202 L37.3362398,27.0720226 C37.5716391,27.2188319 37.797807,27.3748169 38.0332063,27.5308018 L38.277837,27.705138 L38.7394042,28.0354591 L39.0440386,28.2648487 L39.4409864,28.5768186 C39.5563782,28.6639867 39.6671544,28.7603303 39.7825462,28.8520862 L40.137953,29.1502927 L40.5718262,29.5310795 L40.8764606,29.8063471 C41.0841658,29.9944466 41.2872554,30.1917217 41.490345,30.3889968 L41.6426622,30.5358061 C41.9288339,30.8202493 42.2057742,31.1092802 42.4827146,31.4074868 L42.6627258,31.6001741 C43.0319796,32.0084876 43.3966177,32.421389 43.7520245,32.8526415 C43.7981812,32.9031072 43.8397223,32.9627485 43.885879,33.0178021 C44.2412858,33.4490546 44.5828455,33.8894827 44.9197896,34.3436742 L45.0074874,34.4675446 C45.3536628,34.9263239 45.6906069,35.4218055 46.013704,35.9172871 L46.041398,35.9585773 C46.3644951,36.4540589 46.6783608,36.9587161 46.9645325,37.4725489 L47.0106892,37.5505414 C47.3060923,38.0506108 47.5830326,38.5598558 47.8461259,39.0736886 L47.9338237,39.2342613 C48.1923014,39.7343308 48.4323164,40.2435758 48.6631,40.7528208 C48.7000254,40.8308132 48.7323351,40.9042179 48.7692604,40.9776226 C48.9400403,41.367585 49.1062045,41.7529596 49.2631374,42.1475098 L49.3739135,42.4227773 C49.4708427,42.6796937 49.5677718,42.9366101 49.6600852,43.1935265 C49.7108576,43.3265725 49.7570143,43.4642063 49.8077867,43.6018401 C49.8585591,43.7394739 49.9277942,43.9505124 49.9831823,44.1248485 C50.0385704,44.2991846 50.0801114,44.423055 50.1262681,44.5836278 C50.1724249,44.7442005 50.2231973,44.8955977 50.269354,45.042407 C50.3155107,45.1892164 50.3616674,45.354377 50.4032085,45.5011863 C50.4447495,45.6479957 50.4816749,45.7764539 50.5139846,45.9140877 C50.5462943,46.0517215 50.6016824,46.2535844 50.6432235,46.4233327 L50.7263056,46.7765927 C50.7678466,46.9601044 50.8093877,47.1436162 50.846313,47.3271279 C50.8693914,47.4326471 50.8924698,47.5381663 50.9109325,47.6436856 C50.9617049,47.900602 51.0032459,48.1529306 51.044787,48.4052592 L51.044787,48.4878395 C51.0909437,48.7676948 51.1324847,49.0475502 51.1647944,49.3274055 L51.1924885,49.5659708 C51.2155668,49.7632459 51.2340295,49.960521 51.2524922,50.157796 C51.2524922,50.2541397 51.2524922,50.3504833 51.2755706,50.4422392 C51.2755706,50.6303387 51.2755706,50.8184382 51.3078803,51.0065377 L51.3078803,51.2772175 C51.3078803,51.5433095 51.3078803,51.8048137 51.3078803,52.0663179 C51.3078803,52.327822 51.3078803,52.6122652 51.3078803,52.8737694 L51.3078803,53.1077468 C51.3078803,53.2866707 51.2848019,53.4655947 51.2709549,53.6445186 C51.2709549,53.7408622 51.2709549,53.8417937 51.2386452,53.9381373 L51.1832571,54.3969166 C51.1832571,54.5070236 51.1509474,54.6125429 51.1371004,54.7180621 C51.1232534,54.8235813 51.0909437,54.9887419 51.0632496,55.1217879 C51.0355556,55.2548339 51.0217086,55.3557653 50.9940146,55.4704601 C50.9663205,55.585155 50.9432422,55.7090254 50.9109325,55.828308 C50.8786227,55.9475906 50.846313,56.0852244 50.8140033,56.2136826 C50.7816936,56.3421408 50.7539996,56.424721 50.7216899,56.5256525 C50.6893802,56.6265839 50.6201451,56.846798 50.564757,56.9844318 L50.4724436,57.2321726 C50.3755145,57.489089 50.269354,57.7460054 50.1539622,57.9891584 C50.0385704,58.2323114 49.9739509,58.3561818 49.8770218,58.5305179 L49.8493278,58.5763959 C49.7631686,58.7323808 49.6708551,58.8853073 49.5723874,59.0351752 C49.4200703,59.2737404 49.2585217,59.4939544 49.1108202,59.7049929 L48.986197,59.8563901 C48.8246485,60.0490774 48.6538686,60.2371769 48.4784731,60.411513 C48.4642683,60.427936 48.4488391,60.443272 48.4323164,60.4573909 C48.2260476,60.6382801 48.0103518,60.8082632 47.7861222,60.9666359 L47.633805,61.0813308 C47.4234736,61.24544 47.2047034,61.3985729 46.9783795,61.54011 L50.2093502,59.659115 C50.4367731,59.5192245 50.6556338,59.3660282 50.8647757,59.2003357 L51.0124772,59.0902287 C51.2219723,58.9302056 51.4222976,58.75866 51.6125147,58.5763959 L51.6586714,58.5259302 C51.8373217,58.3496121 52.0067843,58.1643292 52.1663954,57.9708072 C52.2079364,57.9203415 52.2494775,57.8744636 52.2864028,57.8239979 C52.4571827,57.6083716 52.6187313,57.3881575 52.7710485,57.1541801 L52.7710485,57.1312411 C52.8587462,56.9890196 52.9418283,56.846798 53.0249104,56.6999886 L53.0572201,56.6495229 C53.1495336,56.4843623 53.2372314,56.3100262 53.3203135,56.1311023 L53.3203135,56.1081633 C53.4372438,55.8665396 53.5434043,55.614211 53.6387949,55.3511775 L53.6711046,55.2823606 L53.7264926,55.1034367 C53.7818807,54.9474518 53.8372688,54.7914668 53.8880412,54.6446574 L53.9295822,54.5116114 C53.9295822,54.4565579 53.9618919,54.3923288 53.975739,54.3372753 C54.0126643,54.2088171 54.044974,54.0803589 54.0772838,53.9473129 C54.0772838,53.8876716 54.1095935,53.8326181 54.1234405,53.7729768 C54.1372875,53.7133355 54.1465188,53.6536942 54.1603659,53.5894651 L54.2296009,53.2407928 C54.2296009,53.1765637 54.257295,53.1169224 54.2665263,53.0526933 C54.2757577,52.9884642 54.2896047,52.9104717 54.298836,52.8416548 C54.3080674,52.772838 54.3357614,52.6260286 54.3496084,52.5205093 C54.3634554,52.4149901 54.3496084,52.4058145 54.3726868,52.3461732 C54.3957652,52.2865319 54.3726868,52.1626615 54.4049965,52.0709057 L54.4326905,51.7726991 L54.4326905,51.6488287 C54.4326905,51.5157827 54.4326905,51.3781489 54.4603846,51.2405152 L54.4603846,51.0065377 C54.4579223,50.9867326 54.4579223,50.9667015 54.4603846,50.9468964 C54.4603846,50.712919 54.4603846,50.4881171 54.4603846,50.2403763 L54.4603846,50.1990862 C54.552698,49.9559332 54.552698,49.7357191 54.5434667,49.4971539 Z" id="Path" fill="url(#linearGradient-39)"></path>
                    <path d="M36.5054187,26.5857165 C44.702853,31.292792 51.326343,42.6934571 51.2987355,52.0571423 C51.2987355,57.443211 49.0692791,60.9758115 45.6352188,62.1135841 L25.5570437,70 L5.58964468,39.1333299 C2.17404707,34.059231 -0.0137816709,28.0033445 0,22.6172757 C0.0277593811,13.2535906 6.70663741,9.48242489 14.8948403,14.1711492 C19.155106,16.6164427 22.9861141,20.8739145 25.6816669,25.7048603 C28.4002979,23.9936136 32.2451531,24.140423 36.5054187,26.5857165 Z" id="Path" fill="url(#linearGradient-40)"></path>
                </g>
                <g id="man1" transform="translate(0.000000, 197.000000)">
                    <path d="M55.6628381,37.9008189 C55.6628381,37.9008189 41.2013013,63.6817996 43.356915,71.6600924 C45.5125287,79.6383852 62.392784,94.374978 62.392784,94.374978 L55.6628381,37.9008189 Z" id="Path" fill="url(#linearGradient-41)"></path>
                    <ellipse id="Oval" fill="url(#linearGradient-42)" cx="73.2677858" cy="263.811266" rx="73.2677858" ry="42.1887335"></ellipse>
                    <path d="M40.1211866,243.72512 C38.497414,245.67425 37.0208958,247.740868 35.7037941,249.907952 C33.6266503,253.360762 34.8590889,257.504134 37.9101824,259.161482 C40.9612758,260.818831 43.873893,261.619883 47.4742756,259.976346 C51.0746582,258.332808 54.1211358,253.314724 59.3832335,252.094731 C64.6453311,250.874739 70.6228894,244.53538 64.4606961,240.240084 C60.2833291,237.339724 40.1211866,243.72512 40.1211866,243.72512 Z" id="Path" fill="url(#linearGradient-43)"></path>
                    <path d="M86.1460774,253.544912 L83.9212256,263.185157 C83.9212256,263.185157 75.0033549,263.677758 72.8431253,259.460726 L75.700352,246.151295 L86.1460774,180.225644 L76.7666192,146.056637 L49.3575527,250.349912 C49.3575527,250.349912 45.7156272,252.453824 42.3044955,251.229227 C41.5798031,250.971417 41.9490731,248.927354 41.2243807,248.411734 C39.7380689,247.311439 39.0733829,248.724789 38.588716,247.850077 L69.6581715,137.594951 L89.968022,142.438092 L98.5258545,187.890882 L86.1460774,253.544912 Z" id="Path" fill="#EFAD81"></path>
                    <path d="M69.0073331,38.660437 L70.3920956,30.1803359 C70.3920956,30.1803359 68.3934217,8.82355555 74.2001926,6.72885087 C80.0069635,4.63414618 92.7560106,6.42500359 92.8621757,16.8064521 C92.9729567,27.344428 92.7190836,36.298715 88.1678307,36.1099614 C83.6165779,35.9212078 82.7857203,35.1615896 82.7857203,35.1615896 L82.9149648,43.3700698 L69.0073331,38.660437 Z" id="Path" fill="#FFBBB6"></path>
                    <path d="M51.4393124,117.577861 L53.3687482,175.290428 L38.5979478,239.305524 C38.5979478,239.305524 41.9629207,244.908283 56.9645149,243.448895 C56.9645149,243.448895 73.5816653,186.090817 75.1741423,183.655435 C76.7666192,181.220053 79.6607729,161.713979 79.6607729,161.713979 C79.6607729,161.713979 82.1625772,191.804066 81.391726,194.957633 C80.6208749,198.111199 72.8292777,252.504465 72.8292777,252.504465 C72.8292777,252.504465 75.9819204,259.971742 90.0972665,257.798773 C90.0972665,257.798773 105.297343,195.18782 105.297343,189.304232 L105.297343,126.532148 L51.4393124,117.577861 Z" id="Path" fill="url(#linearGradient-44)"></path>
                    <path d="M85.2644453,259.870459 C85.2644453,259.870459 78.0082896,260.238759 76.623527,259.304199 C75.2387645,258.369638 74.887958,256.316367 73.743221,256.224292 C72.5984839,256.132217 67.7933579,263.590287 67.7422825,268.921425 C67.7010404,272.332801 71.9614932,275.688933 81.4101895,274.570222 C92.2298008,273.285777 91.2143083,275.569235 100.667621,273.612643 C110.120933,271.656051 106.899052,265.933594 101.378465,265.37654 C95.8578787,264.819487 90.5450064,263.880323 88.5509484,262.388709 C86.5568903,260.897095 85.2644453,259.870459 85.2644453,259.870459 Z" id="Path" fill="url(#linearGradient-45)"></path>
                    <path d="M154.087143,46.4407687 C154.087143,46.4407687 154.959544,44.7327788 154.004058,44.2401779 C153.048571,43.747577 151.894603,44.9399473 151.894603,44.9399473 C152.093085,43.1859199 151.61765,41.8784559 149.702062,43.6785208 C149.272786,44.0790467 148.575788,44.7696087 147.855712,45.5200194 C147.203823,45.4561646 146.54798,45.4423127 145.893965,45.4785857 C144.772307,45.5706606 144.259945,48.4940397 144.09839,49.6541838 L141.370407,53.6594433 L144.509202,61.168154 C144.509202,61.168154 148.774271,59.1194868 150.366748,57.8718714 C151.959225,56.6242561 156.293532,51.0030816 155.984268,49.5575052 C155.675004,48.1119287 154.701055,49.1385642 154.701055,49.1385642 C154.701055,49.1385642 155.804249,47.6147241 155.33343,46.6801635 C155.249527,46.4318622 155.038212,46.2477566 154.780239,46.1982035 C154.522267,46.1486504 154.257508,46.2413087 154.087143,46.4407687 Z" id="Path" fill="#FFBBB6"></path>
                    <path d="M116.075412,88.0816564 C121.808329,88.2796175 151.322234,58.2677937 151.322234,58.2677937 C149.092766,50.3309346 141.707366,52.1724332 141.707366,52.1724332 L118.037159,69.8968575 C118.037159,69.8968575 101.766199,52.5683554 98.5027751,48.9452069 C95.2393514,45.3220583 83.4596381,39.2543203 83.4596381,39.2543203 C83.4596381,39.2543203 73.2493223,42.5229804 68.7673076,34.1901991 C68.7673076,34.1901991 54.8689076,35.3503433 53.4241387,35.9120003 C51.9793698,36.4736574 47.3727264,46.9609921 53.4933768,69.2293142 C61.8481108,99.6140415 49.4037114,118.438761 49.4037114,118.438761 C49.4037114,118.438761 69.5520064,141.185873 107.665287,129.704129 L92.8944868,77.8245091 C92.8944868,77.8245091 110.342495,87.8836953 116.075412,88.0816564 Z" id="Path" fill="url(#linearGradient-46)"></path>
                    <path d="M88.3755451,17.0366394 C88.3755451,17.0366394 96.6241139,18.2704435 96.4487107,12.7183251 C96.2733074,7.16620679 92.6729248,9.87320977 91.7082069,5.16818078 C90.5496223,-0.489823745 82.2133518,-2.41418981 75.5249488,4.09090409 C70.525956,8.94785671 67.5810277,11.5627848 59.2447572,10.0067184 C39.1333893,6.24085373 16.8479442,24.8445936 35.0806509,47.8126852 C53.3133577,70.7807768 78.252931,56.3065976 78.216004,43.0708262 C78.179077,29.8350549 84.5212894,26.3039813 88.8832914,25.6594567 C93.2452934,25.0149322 88.3755451,17.0366394 88.3755451,17.0366394 Z" id="Path" fill="url(#linearGradient-47)"></path>
                </g>
                <g id="dialog_love" transform="translate(455.000000, 57.000000)">
                    <g id="Group">
                        <path d="M111.701536,59.8954345 L8.19325546,0.450539106 C7.27318185,-0.0756838924 6.44511561,-0.126018266 5.84706777,0.221746498 L1.17309385,2.92149927 C1.77574206,2.57373451 2.60840867,2.62406888 3.52388191,3.15029188 L107.032163,62.5951873 C108.981182,63.8546472 110.207143,65.9652591 110.330626,68.2738198 L110.12821,138.668729 C110.12821,139.707448 109.75558,140.435008 109.162133,140.778197 L113.836107,138.078444 C114.429554,137.735256 114.797584,137.007695 114.797584,135.968977 L115,65.574067 C114.875042,63.2659417 113.649441,61.1559469 111.701536,59.8954345 Z" id="Path" fill="url(#linearGradient-48)"></path>
                        <path d="M110.321426,68.2692439 L110.11901,138.668729 C110.11901,140.755318 108.62849,141.597275 106.802144,140.549405 L62.937635,115.359338 L34.5349628,99.0464255 L20.9224738,106.761312 C20.4726735,106.968153 19.945913,106.91925 19.5423634,106.633188 C18.3625259,105.877713 17.6196635,104.604211 17.5458037,103.210451 L17.587207,89.3090122 L16.7407393,88.8239718 L3.29386351,81.1136609 C1.34674843,79.8551674 0.122409367,77.7461033 0,75.4396043 L0.202416193,5.04011882 C0.202416193,2.95353024 1.68833507,2.11157344 3.51468117,3.15944358 L28.6832947,17.6145605 L60.8030642,36.0598206 L107.027562,62.5997631 C108.972851,63.8578486 110.196839,65.9646081 110.321426,68.2692439 Z" id="Path" fill="url(#linearGradient-49)"></path>
                    </g>
                    <path d="M62.3533883,60.5818123 C68.724898,64.242494 73.8543083,73.1059197 73.8543083,80.3861004 C73.8543083,84.5730052 72.1199696,87.3139406 69.4517561,88.2016559 L53.8519082,94.3332978 L38.3440675,70.3375291 C35.6850548,66.3931446 33.987519,61.6845927 34.0012366,57.497688 C34.0012366,50.2175072 39.2043363,47.2843859 45.5712457,50.9404918 C48.8789103,52.8394705 51.8599488,56.1523874 53.9531162,59.909162 C56.0600848,58.5638615 59.0457237,58.6919854 62.3533883,60.5818123 Z" id="Path" fill="url(#linearGradient-50)"></path>
                </g>
                <g id="like" transform="translate(53.000000, 115.000000)">
                    <path d="M60.5574765,57.7435722 L10.4425235,28.9505233 C4.67623532,25.6373631 0,16.7506196 0,9.10346293 L0,9.10346293 C0,1.45174894 4.67623532,-2.06649001 10.4425235,1.24667025 L60.5574765,30.0397191 C66.3237647,33.3528793 71,42.2396228 71,49.8913368 L71,49.8913368 C71,57.5384935 66.3237647,61.0795189 60.5574765,57.7435722 Z" id="Path" fill="url(#linearGradient-51)"></path>
                    <polygon id="Path" fill="#FFFFFF" points="23.5048381 16.4179364 23.5048381 26.444006 26.9581989 28.4264333 26.9581989 30.7461013 20.8713069 27.2506488 20.8713069 14.9185833"></polygon>
                    <polygon id="Path" fill="#FFFFFF" points="28.2222939 19.152319 30.8558251 20.665344 30.8558251 33.0065242 28.2222939 31.4934992"></polygon>
                    <polygon id="Path" fill="#FFFFFF" points="35.3992388 30.158209 35.3992388 35.6269742 32.7657077 34.1139492 32.7657077 21.7545398 35.3992388 23.2675648 35.3992388 28.6816424 39.0037415 25.336581 42.0998581 27.1139297 37.9091085 30.7597732 42.2555799 39.5508132 39.049542 37.7005477"></polygon>
                    <polygon id="Path" fill="#FFFFFF" points="50.124113 34.1367357 46.1348858 31.8580835 46.1348858 34.3554863 49.6615275 36.3834867 49.6615275 38.7031546 46.1348858 36.6751542 46.1348858 39.3867503 50.124113 41.6654025 50.124113 44.0762164 43.5013547 40.2708673 43.5013547 27.9251299 50.124113 31.7259217"></polygon>
                </g>
                <g id="smile3" transform="translate(261.000000, 97.000000)">
                    <path d="M33.1123989,1.29737353 C29.5866585,-0.735787552 24.7080717,-0.445993099 19.3198508,2.64054782 C8.61753778,8.77683036 -0.0323403525,23.6529456 0,35.8657118 C0,41.9329957 2.1776178,46.201714 5.6570278,48.2072756 L16.896773,54.6977513 C13.417363,52.6875898 11.2583683,48.4234714 11.2398361,42.3561876 C11.2074049,30.1388214 19.857283,15.2627062 30.5595961,9.12642366 C35.9478169,6.03988275 40.8264038,5.75468821 44.3521441,7.78784929 L33.1123989,1.29737353 Z" id="Path" fill="url(#linearGradient-52)"></path>
                    <path d="M30.5410639,9.12642366 C41.24801,2.99014113 49.9534846,7.91664682 50,20.134013 C50.0461453,32.3513791 41.3870011,47.2182945 30.680055,53.359177 C19.9731089,59.5000594 11.2722674,54.5643539 11.2210804,42.3561876 C11.1703406,30.1480213 19.8387509,15.2627062 30.5410639,9.12642366 Z" id="Path" fill="url(#linearGradient-53)"></path>
                    <ellipse id="Oval" fill="#FFFFFF" transform="translate(25.235658, 28.848576) rotate(-59.690000) translate(-25.235658, -28.848576) " cx="25.2356579" cy="28.8485761" rx="3.70972686" ry="2.15047071"></ellipse>
                    <ellipse id="Oval" fill="#FFFFFF" transform="translate(38.408422, 20.705598) rotate(-59.826480) translate(-38.408422, -20.705598) " cx="38.4084223" cy="20.705598" rx="3.69033084" ry="2.13929063"></ellipse>
                    <path d="M32.7278569,45.4979274 C38.5654822,42.1491915 43.300445,34.0441467 43.300445,27.392674 L22.1552688,39.513442 C22.1552688,46.1649147 26.8902316,48.8466633 32.7278569,45.4979274 Z" id="Path" fill="#FFFFFF"></path>
                </g>
                <g id="smile2" transform="translate(272.000000, 0.000000)">
                    <path d="M33.0893089,1.30151183 C29.5635841,-0.731495439 24.6850189,-0.455521601 19.2968219,2.64458451 C8.58992326,8.78040283 -0.0599165663,23.6553927 0,35.8810337 C0,41.9478586 2.17319687,46.2162539 5.65259147,48.2216638 L16.8969199,54.7116485 C13.4175253,52.7062387 11.2631732,48.4378433 11.2446411,42.3710184 C11.207577,30.1545766 19.8620498,15.2795867 30.5643155,9.14376838 C35.9525124,6.05746097 40.8310777,5.772288 44.3568024,7.80529527 L33.0893089,1.30151183 Z" id="Path" fill="url(#linearGradient-54)"></path>
                    <path d="M30.5411504,9.12996969 C41.2480491,2.99415137 49.9534851,7.92488394 50,20.1367263 C50.0461454,32.3485686 41.3731405,47.2189589 30.6662418,53.3593767 C19.9593431,59.4997946 11.2539071,54.5644625 11.2073923,42.3572197 C11.1612468,30.149977 19.8388847,15.265788 30.5411504,9.12996969 Z" id="Path" fill="url(#linearGradient-55)"></path>
                    <ellipse id="Oval" fill="#FFFFFF" transform="translate(25.232341, 28.850298) rotate(-59.690000) translate(-25.232341, -28.850298) " cx="25.2323411" cy="28.8502984" rx="3.70951399" ry="2.15042303"></ellipse>
                    <ellipse id="Oval" fill="#FFFFFF" transform="translate(40.213063, 20.259806) rotate(-59.690000) translate(-40.213063, -20.259806) " cx="40.2130634" cy="20.2598056" rx="3.70951399" ry="2.15042303"></ellipse>
                    <path d="M32.7279337,45.4987219 C38.5655331,42.1502394 43.3004749,34.0458077 43.3004749,27.3948382 L22.1553925,39.5146892 C22.1553925,46.1656587 26.8718022,48.8472045 32.7279337,45.4987219 Z" id="Path" fill="#FFFFFF"></path>
                </g>
                <g id="smile" transform="translate(349.000000, 76.000000)">
                    <path d="M21.2016516,0.834173023 C18.9425051,-0.472496063 15.8187469,-0.28715293 12.3695973,1.69601859 C5.51313415,5.63919374 -0.0231693343,15.2028994 0,23.0568146 C0,26.9582876 1.3946078,29.7013659 3.61656671,30.9895007 L10.8170151,35.1597212 C8.59040779,33.8669529 7.20981825,31.1238745 7.20052135,27.2224015 C7.20052135,19.3684863 12.7135826,9.80478065 19.5700458,5.8616055 C23.0191954,3.87843398 26.1429535,3.69309085 28.4021,4.99975993 L21.2016516,0.834173023 Z" id="Path" fill="url(#linearGradient-56)"></path>
                    <path d="M19.5700458,5.86623908 C26.4218605,1.92306393 32,5.08779792 32,12.9417132 C32,20.7956284 26.4869388,30.3547005 19.6304756,34.3025092 C12.7740124,38.2503179 7.20052135,35.0763168 7.18188097,27.2270351 C7.16333376,19.3777535 12.7135826,9.83258212 19.5700458,5.86623908 Z" id="Path" fill="url(#linearGradient-57)"></path>
                    <ellipse id="Oval" fill="#FFFFFF" transform="translate(16.166760, 18.542058) rotate(-59.690000) translate(-16.166760, -18.542058) " cx="16.16676" cy="18.542058" rx="2.38360694" ry="1.37946869"></ellipse>
                    <ellipse id="Oval" fill="#FFFFFF" transform="translate(25.763283, 13.019118) rotate(-59.690000) translate(-25.763283, -13.019118) " cx="25.7632835" cy="13.0191176" rx="2.38360694" ry="1.37946869"></ellipse>
                    <path d="M20.9692291,29.2472753 C24.6879888,27.0972949 27.7373717,21.8845193 27.7373717,17.6077265 L14.2010865,25.4014053 C14.2010865,29.6781981 17.2318756,31.3972556 20.9692291,29.2472753 Z" id="Path" fill="#FFFFFF"></path>
                </g>
            </g>
        </g>
    </g>
</svg>
