<svg width="85" height="20" viewBox="0 0 85 20" fill="none" xmlns="http://www.w3.org/2000/svg">
<path d="M3.69565 4H0V8H3.69565V4ZM3.69565 8H0V12H3.69565V8ZM7.3913 0H3.69565V4H7.3913V0ZM3.69565 0H0V4H3.69565V0ZM11.087 12H7.3913V16H11.087V12ZM7.3913 12H3.69565V16H7.3913V12ZM3.69565 12H0V16H3.69565V12ZM14.7826 4H11.087V8H14.7826V4ZM11.087 0H7.3913V4H11.087V0ZM14.7826 8H11.087V12H14.7826V8ZM36.9565 4H33.2609V8H36.9565V4ZM40.6522 0H36.9565V4H40.6522V0ZM36.9565 0H33.2609V4H36.9565V0ZM44.3478 0H40.6522V4H44.3478V0ZM40.6522 12H36.9565V16H40.6522V12ZM44.3478 12H40.6522V16H44.3478V12ZM48.0435 8H44.3478V12H48.0435V8ZM55.4348 4H51.7391V8H55.4348V4ZM62.8261 0H59.1304V4H62.8261V0ZM59.1304 0H55.4348V4H59.1304V0ZM55.4348 0H51.7391V4H55.4348V0ZM66.5217 4H62.8261V8H66.5217V4ZM66.5217 12H62.8261V16H66.5217V12ZM66.5217 8H62.8261V12H66.5217V8ZM48.0435 4H44.3478V8H48.0435V4ZM55.4348 12H51.7391V16H55.4348V12ZM55.4348 8H51.7391V12H55.4348V8ZM55.4348 16H51.7391V20H55.4348V16ZM66.5217 16H62.8261V20H66.5217V16ZM48.0435 16H44.3478V20H48.0435V16ZM48.0435 12H44.3478V16H48.0435V12ZM36.9565 12H33.2609V16H36.9565V12ZM36.9565 16H33.2609V20H36.9565V16ZM36.9565 8H33.2609V12H36.9565V8ZM3.69565 16H0V20H3.69565V16ZM22.1739 12H18.4783V16H22.1739V12ZM73.913 12H70.2174V16H73.913V12ZM77.6087 8H73.913V12H77.6087V8ZM81.3043 4H77.6087V8H81.3043V4ZM85 0H81.3043V4H85V0ZM81.3043 12H77.6087V16H81.3043V12ZM85 16H81.3043V20H85V16ZM73.913 16H70.2174V20H73.913V16ZM22.1739 8H18.4783V12H22.1739V8ZM73.913 8H70.2174V12H73.913V8ZM22.1739 4H18.4783V8H22.1739V4ZM73.913 4H70.2174V8H73.913V4ZM22.1739 0H18.4783V4H22.1739V0ZM73.913 0H70.2174V4H73.913V0ZM25.8696 16H22.1739V20H25.8696V16ZM29.5652 16H25.8696V20H29.5652V16Z" fill="black"/>
</svg>
